<svg id="Layer_1" data-name="Layer 1" xmlns="http://www.w3.org/2000/svg" viewBox="0 0 154.19 45"><defs><style>.cls-1{fill:#fff;}</style></defs><path class="cls-1" d="M26.29.26V6.8l2.87,6.85a3.09,3.09,0,0,1-.06,2.49L21.9,31.31l-.09.18V27.38l.07-.38-.06.12V18.75a2.1,2.1,0,1,0-3-1.89A2.08,2.08,0,0,0,20,18.75V31.49L12.66,16.14a3,3,0,0,1-.05-2.49L15.48,6.8V.26H.23L15.08,44.74H26.81L41.77.26Z"/><path class="cls-1" d="M49,24.88l2.35-8.52H54.9L50.63,29H47.41L43.15,16.36h3.53Z"/><path class="cls-1" d="M65.74,31.64H55.1V29H65.74Z"/><path class="cls-1" d="M72.87,29.23a6.21,6.21,0,0,1-4.52-1.7A6,6,0,0,1,66.6,23v-.32a7.66,7.66,0,0,1,.74-3.41,5.37,5.37,0,0,1,2.08-2.31,5.88,5.88,0,0,1,3.08-.81,5.23,5.23,0,0,1,4.08,1.63,6.67,6.67,0,0,1,1.49,4.64v1.38H70a3.12,3.12,0,0,0,1,2,3,3,0,0,0,2.09.75,3.63,3.63,0,0,0,3-1.41L77.8,27a5.07,5.07,0,0,1-2,1.67A6.81,6.81,0,0,1,72.87,29.23Zm-.38-10.38a2.13,2.13,0,0,0-1.63.68,3.5,3.5,0,0,0-.8,1.95h4.69v-.27a2.48,2.48,0,0,0-.6-1.74A2.16,2.16,0,0,0,72.49,18.85Z"/><path class="cls-1" d="M87.09,19.53a8.19,8.19,0,0,0-1.22-.1,2.49,2.49,0,0,0-2.51,1.3V29H80V16.36h3.18l.1,1.51a3.12,3.12,0,0,1,2.81-1.74,3.51,3.51,0,0,1,1,.15Z"/><path class="cls-1" d="M93.34,13.25v3.11H95.5v2.48H93.34v6.3a1.51,1.51,0,0,0,.27,1,1.33,1.33,0,0,0,1,.3,5,5,0,0,0,1-.08v2.56a7.11,7.11,0,0,1-2,.3C91.21,29.23,90,28,90,25.65V18.84H88.12V16.36H90V13.25Z"/></svg>